<?xml version="1.0" encoding="UTF-8" standalone="no"?><!DOCTYPE svg PUBLIC "-//W3C//DTD SVG 1.1//EN" "http://www.w3.org/Graphics/SVG/1.1/DTD/svg11.dtd"><svg width="100%" height="100%" viewBox="0 0 3246 924" version="1.1" xmlns="http://www.w3.org/2000/svg" xmlns:xlink="http://www.w3.org/1999/xlink" xml:space="preserve" xmlns:serif="http://www.serif.com/" style="fill-rule:evenodd;clip-rule:evenodd;stroke-linejoin:round;stroke-miterlimit:2;"><g id="BG"></g><rect id="Artboard1" x="0" y="0" width="3245.03" height="923.786" style="fill:none;"/><rect x="142.173" y="142.589" width="513.711" height="659.756" style="fill:#96c8d1;fill-rule:nonzero;"/><rect x="207.956" y="204.786" width="380.629" height="533.018" style="fill:#cde9e3;fill-rule:nonzero;"/><path d="M518.389,552.593l-55.026,-0l0,109.913l27.444,-24.548l27.582,24.548l-0,-109.913Z" style="fill:#96c96c;fill-rule:nonzero;"/><path d="M536.731,543.491c-0,25.237 -20.549,45.785 -45.924,45.785c-25.375,0 -45.924,-20.548 -45.924,-45.785c0,-25.376 20.549,-45.786 45.924,-45.786c25.375,-0 45.924,20.548 45.924,45.786Z" style="fill:#fbba22;fill-rule:nonzero;"/><path d="M655.884,124.385l-513.711,0c-10.067,0 -18.342,8.275 -18.342,18.342l0,659.756c0,10.068 8.275,18.342 18.342,18.342l513.711,0c10.067,0 18.342,-8.274 18.342,-18.342l-0,-659.894c-0,-10.067 -8.275,-18.204 -18.342,-18.204Zm-18.342,659.757l-477.027,-0l0,-623.211l477.027,0l0,623.211Z" style="fill:#211f1e;fill-rule:nonzero;"/><path d="M206.439,747.458l385.179,-0c5.103,-0 9.24,-4.137 9.24,-9.102l0,-531.501c0,-5.103 -4.137,-9.102 -9.24,-9.102l-385.179,-0c-5.103,-0 -9.24,4.137 -9.24,9.102l-0,531.501c-0,4.965 4.137,9.102 9.24,9.102Zm9.102,-531.501l366.838,-0l-0,513.159l-366.838,-0l-0,-513.159Z" style="fill:#211f1e;fill-rule:nonzero;"/><path d="M341.728,600.723l-55.026,-0c-5.103,-0 -9.24,4.137 -9.24,9.102c-0,5.102 4.137,9.102 9.24,9.102l55.026,-0c5.102,-0 9.239,-4.138 9.239,-9.102c-0.138,-4.965 -4.275,-9.102 -9.239,-9.102Zm-61.922,-201.899l238.445,0c5.103,0 9.24,-4.137 9.24,-9.102c-0,-5.102 -4.137,-9.102 -9.24,-9.102l-238.445,0c-5.102,0 -9.239,4.137 -9.239,9.102c-0,4.965 4.137,9.102 9.239,9.102Zm119.154,36.684l-119.292,-0c-5.102,-0 -9.239,4.137 -9.239,9.102c-0,5.103 4.137,9.102 9.239,9.102l119.292,-0c5.102,-0 9.24,-4.137 9.24,-9.102c-0,-5.103 -4.138,-9.102 -9.24,-9.102Zm-119.154,-91.71l238.445,0c5.103,0 9.24,-4.137 9.24,-9.102c-0,-5.102 -4.137,-9.102 -9.24,-9.102l-238.445,0c-5.102,0 -9.239,4.138 -9.239,9.102c-0,4.965 4.137,9.102 9.239,9.102Zm0,-54.887l238.445,-0c5.103,-0 9.24,-4.138 9.24,-9.102c-0,-5.103 -4.137,-9.102 -9.24,-9.102l-238.445,-0c-5.102,-0 -9.239,4.137 -9.239,9.102c-0,4.964 4.137,9.102 9.239,9.102Zm201.899,201.485c-30.34,-0 -55.026,24.685 -55.026,55.025c0,16.274 7.172,30.754 18.342,40.821l0,78.195c0,3.585 2.069,6.895 5.379,8.412c3.31,1.517 7.171,0.828 9.929,-1.517l21.376,-19.169l21.376,19.169c1.655,1.517 3.861,2.345 6.068,2.345c1.241,-0 2.482,-0.276 3.723,-0.828c3.31,-1.517 5.379,-4.689 5.379,-8.412l-0,-78.195c11.171,-10.067 18.342,-24.685 18.342,-40.821c0.138,-30.34 -24.548,-55.025 -54.888,-55.025Zm18.342,153.492l-12.274,-10.895c-3.448,-3.171 -8.826,-3.171 -12.274,0l-12.274,10.895l0,-46.751c5.792,2.069 11.86,3.172 18.342,3.172c6.482,0 12.55,-1.103 18.342,-3.172l0,46.751l0.138,0Zm-18.342,-61.783c-20.273,0 -36.684,-16.411 -36.684,-36.684c0,-20.272 16.411,-36.683 36.684,-36.683c20.273,-0 36.684,16.411 36.684,36.683c-0,20.273 -16.411,36.684 -36.684,36.684Z" style="fill:#211f1e;fill-rule:nonzero;"/><g transform="matrix(283.53,0,0,283.53,3117.47,579.164)"></g><text x="784.992px" y="579.164px" style="font-family:'ArialMT', 'Arial', sans-serif;font-size:283.53px;fill:#fff;">certwarden-deploy</text></svg>